# xmcd
#
# Track frame offsets: 
#        150
#        11030
#        29860
#        50940
#        63245
#        82462
#        93045
#        118315
#        130570
#        145685
#
# Disc length: 2472 seconds
#
# Revision: 18
# Processed by: cddbd v1.5.2PL0 Copyright (c) Steve Scherf et al.
# Submitted via: ExactAudioCopy v0.99pb5
#
DISCID=9109a60a
DTITLE=Stevie Ray Vaughan And Double Trouble - In Step
DYEAR=1900
DGENRE=Blues
TTITLE0=The House Is Rockin'
TTITLE1=Crossfire
TTITLE2=Tightrope
TTITLE3=Let Me Love You Baby
TTITLE4=Leave My Girl Alone
TTITLE5=Travis Walk
TTITLE6=Wall of Denial
TTITLE7=Scratch-N-Sniff
TTITLE8=Love Me Darlin'
TTITLE9=Riviera Paradise
EXTD=LABEL =CBS Records Inc.\nID =EK45024\nUPC =07464-45024-2\nCOPY
EXTD=RIGHT =1989 ID3G:   0
EXTT0=
EXTT1=
EXTT2=
EXTT3=
EXTT4=
EXTT5=
EXTT6=
EXTT7=
EXTT8=
EXTT9=
PLAYORDER=
